<mxfile host="app.diagrams.net" modified="2023-03-07T01:39:28.544Z" agent="5.0 (Windows NT 10.0; Win64; x64) AppleWebKit/537.36 (KHTML, like Gecko) Chrome/109.0.0.0 Safari/537.36" etag="7SQTEr4hZgbL0Wqz2vF_" version="21.0.2" type="github">
  <diagram name="Halaman-1" id="MgstL3bpcUM_gTuNk5c2">
    <mxGraphModel dx="1735" dy="1120" grid="1" gridSize="10" guides="1" tooltips="1" connect="1" arrows="1" fold="1" page="1" pageScale="1" pageWidth="2339" pageHeight="3300" math="0" shadow="0">
      <root>
        <mxCell id="0" />
        <mxCell id="1" parent="0" />
        <mxCell id="4BObnnodCT3G0U85T-69-4" value="KARYAWAN" style="rounded=1;whiteSpace=wrap;html=1;" vertex="1" parent="1">
          <mxGeometry x="1830" y="310" width="120" height="60" as="geometry" />
        </mxCell>
        <mxCell id="4BObnnodCT3G0U85T-69-6" value="" style="endArrow=classic;html=1;rounded=0;exitX=1;exitY=0.75;exitDx=0;exitDy=0;entryX=0;entryY=0.5;entryDx=0;entryDy=0;" edge="1" parent="1" source="4BObnnodCT3G0U85T-69-4" target="4BObnnodCT3G0U85T-69-7">
          <mxGeometry width="50" height="50" relative="1" as="geometry">
            <mxPoint x="1950" y="360" as="sourcePoint" />
            <mxPoint x="2030" y="390" as="targetPoint" />
          </mxGeometry>
        </mxCell>
        <mxCell id="4BObnnodCT3G0U85T-69-7" value="password" style="ellipse;whiteSpace=wrap;html=1;" vertex="1" parent="1">
          <mxGeometry x="2050" y="310" width="120" height="80" as="geometry" />
        </mxCell>
        <mxCell id="4BObnnodCT3G0U85T-69-8" value="" style="endArrow=classic;html=1;rounded=0;exitX=1;exitY=0.25;exitDx=0;exitDy=0;entryX=-0.017;entryY=0.588;entryDx=0;entryDy=0;entryPerimeter=0;" edge="1" parent="1" source="4BObnnodCT3G0U85T-69-4" target="4BObnnodCT3G0U85T-69-9">
          <mxGeometry width="50" height="50" relative="1" as="geometry">
            <mxPoint x="1950" y="360" as="sourcePoint" />
            <mxPoint x="2030" y="310" as="targetPoint" />
          </mxGeometry>
        </mxCell>
        <mxCell id="4BObnnodCT3G0U85T-69-9" value="alamat" style="ellipse;whiteSpace=wrap;html=1;" vertex="1" parent="1">
          <mxGeometry x="2050" y="220" width="120" height="80" as="geometry" />
        </mxCell>
        <mxCell id="4BObnnodCT3G0U85T-69-10" value="" style="endArrow=classic;html=1;rounded=0;exitX=0.75;exitY=0;exitDx=0;exitDy=0;" edge="1" parent="1" source="4BObnnodCT3G0U85T-69-4" target="4BObnnodCT3G0U85T-69-11">
          <mxGeometry width="50" height="50" relative="1" as="geometry">
            <mxPoint x="1900" y="300" as="sourcePoint" />
            <mxPoint x="1950" y="250" as="targetPoint" />
          </mxGeometry>
        </mxCell>
        <mxCell id="4BObnnodCT3G0U85T-69-11" value="telephone" style="ellipse;whiteSpace=wrap;html=1;" vertex="1" parent="1">
          <mxGeometry x="2020" y="120" width="120" height="80" as="geometry" />
        </mxCell>
        <mxCell id="4BObnnodCT3G0U85T-69-12" value="email" style="ellipse;whiteSpace=wrap;html=1;" vertex="1" parent="1">
          <mxGeometry x="1900" y="90" width="120" height="80" as="geometry" />
        </mxCell>
        <mxCell id="4BObnnodCT3G0U85T-69-13" value="" style="endArrow=classic;html=1;rounded=0;exitX=0.5;exitY=0;exitDx=0;exitDy=0;entryX=0.5;entryY=1;entryDx=0;entryDy=0;" edge="1" parent="1" source="4BObnnodCT3G0U85T-69-4" target="4BObnnodCT3G0U85T-69-12">
          <mxGeometry width="50" height="50" relative="1" as="geometry">
            <mxPoint x="1870" y="290" as="sourcePoint" />
            <mxPoint x="1920" y="240" as="targetPoint" />
          </mxGeometry>
        </mxCell>
        <mxCell id="4BObnnodCT3G0U85T-69-14" value="nama" style="ellipse;whiteSpace=wrap;html=1;" vertex="1" parent="1">
          <mxGeometry x="1770" y="90" width="120" height="80" as="geometry" />
        </mxCell>
        <mxCell id="4BObnnodCT3G0U85T-69-15" value="" style="endArrow=classic;html=1;rounded=0;exitX=0.375;exitY=0.017;exitDx=0;exitDy=0;exitPerimeter=0;entryX=0.5;entryY=1;entryDx=0;entryDy=0;" edge="1" parent="1" source="4BObnnodCT3G0U85T-69-4" target="4BObnnodCT3G0U85T-69-14">
          <mxGeometry width="50" height="50" relative="1" as="geometry">
            <mxPoint x="1820" y="260" as="sourcePoint" />
            <mxPoint x="1870" y="210" as="targetPoint" />
          </mxGeometry>
        </mxCell>
        <mxCell id="4BObnnodCT3G0U85T-69-16" value="role_id" style="ellipse;whiteSpace=wrap;html=1;" vertex="1" parent="1">
          <mxGeometry x="1640" y="120" width="120" height="80" as="geometry" />
        </mxCell>
        <mxCell id="4BObnnodCT3G0U85T-69-17" value="" style="endArrow=classic;html=1;rounded=0;exitX=0.108;exitY=0;exitDx=0;exitDy=0;entryX=0.808;entryY=0.938;entryDx=0;entryDy=0;entryPerimeter=0;exitPerimeter=0;" edge="1" parent="1" source="4BObnnodCT3G0U85T-69-4" target="4BObnnodCT3G0U85T-69-16">
          <mxGeometry width="50" height="50" relative="1" as="geometry">
            <mxPoint x="1740" y="290" as="sourcePoint" />
            <mxPoint x="1790" y="240" as="targetPoint" />
          </mxGeometry>
        </mxCell>
        <mxCell id="4BObnnodCT3G0U85T-69-18" value="id" style="ellipse;whiteSpace=wrap;html=1;" vertex="1" parent="1">
          <mxGeometry x="1580" y="210" width="120" height="80" as="geometry" />
        </mxCell>
        <mxCell id="4BObnnodCT3G0U85T-69-19" value="" style="endArrow=classic;html=1;rounded=0;exitX=0;exitY=0.5;exitDx=0;exitDy=0;entryX=1;entryY=0.5;entryDx=0;entryDy=0;" edge="1" parent="1" source="4BObnnodCT3G0U85T-69-4" target="4BObnnodCT3G0U85T-69-18">
          <mxGeometry width="50" height="50" relative="1" as="geometry">
            <mxPoint x="1730" y="310" as="sourcePoint" />
            <mxPoint x="1780" y="260" as="targetPoint" />
          </mxGeometry>
        </mxCell>
        <mxCell id="4BObnnodCT3G0U85T-69-20" value="MELAYANI" style="rhombus;whiteSpace=wrap;html=1;" vertex="1" parent="1">
          <mxGeometry x="1850" y="450" width="80" height="80" as="geometry" />
        </mxCell>
        <mxCell id="4BObnnodCT3G0U85T-69-22" value="" style="endArrow=none;html=1;rounded=0;entryX=0.5;entryY=1;entryDx=0;entryDy=0;exitX=0.5;exitY=0;exitDx=0;exitDy=0;" edge="1" parent="1" source="4BObnnodCT3G0U85T-69-20" target="4BObnnodCT3G0U85T-69-4">
          <mxGeometry width="50" height="50" relative="1" as="geometry">
            <mxPoint x="1850" y="420" as="sourcePoint" />
            <mxPoint x="1900" y="370" as="targetPoint" />
          </mxGeometry>
        </mxCell>
        <mxCell id="4BObnnodCT3G0U85T-69-36" style="edgeStyle=orthogonalEdgeStyle;rounded=0;orthogonalLoop=1;jettySize=auto;html=1;exitX=0.5;exitY=1;exitDx=0;exitDy=0;entryX=0.5;entryY=0;entryDx=0;entryDy=0;" edge="1" parent="1" source="4BObnnodCT3G0U85T-69-23" target="4BObnnodCT3G0U85T-69-27">
          <mxGeometry relative="1" as="geometry" />
        </mxCell>
        <mxCell id="4BObnnodCT3G0U85T-69-23" value="KONSUMEN" style="rounded=1;whiteSpace=wrap;html=1;" vertex="1" parent="1">
          <mxGeometry x="1830" y="600" width="120" height="60" as="geometry" />
        </mxCell>
        <mxCell id="4BObnnodCT3G0U85T-69-24" value="" style="endArrow=none;html=1;rounded=0;entryX=0.5;entryY=1;entryDx=0;entryDy=0;exitX=0.5;exitY=0;exitDx=0;exitDy=0;" edge="1" parent="1" source="4BObnnodCT3G0U85T-69-23" target="4BObnnodCT3G0U85T-69-20">
          <mxGeometry width="50" height="50" relative="1" as="geometry">
            <mxPoint x="1900" y="600" as="sourcePoint" />
            <mxPoint x="1950" y="550" as="targetPoint" />
          </mxGeometry>
        </mxCell>
        <mxCell id="4BObnnodCT3G0U85T-69-25" value="telephone" style="ellipse;whiteSpace=wrap;html=1;" vertex="1" parent="1">
          <mxGeometry x="2020" y="625" width="120" height="80" as="geometry" />
        </mxCell>
        <mxCell id="4BObnnodCT3G0U85T-69-26" value="alamat" style="ellipse;whiteSpace=wrap;html=1;" vertex="1" parent="1">
          <mxGeometry x="1950" y="710" width="120" height="80" as="geometry" />
        </mxCell>
        <mxCell id="4BObnnodCT3G0U85T-69-27" value="nama" style="ellipse;whiteSpace=wrap;html=1;" vertex="1" parent="1">
          <mxGeometry x="1830" y="745" width="120" height="80" as="geometry" />
        </mxCell>
        <mxCell id="4BObnnodCT3G0U85T-69-28" value="kode_konsumen" style="ellipse;whiteSpace=wrap;html=1;" vertex="1" parent="1">
          <mxGeometry x="1710" y="710" width="120" height="80" as="geometry" />
        </mxCell>
        <mxCell id="4BObnnodCT3G0U85T-69-29" value="id" style="ellipse;whiteSpace=wrap;html=1;" vertex="1" parent="1">
          <mxGeometry x="1640" y="625" width="120" height="80" as="geometry" />
        </mxCell>
        <mxCell id="4BObnnodCT3G0U85T-69-39" value="" style="endArrow=classic;html=1;rounded=0;entryX=0.225;entryY=0.038;entryDx=0;entryDy=0;entryPerimeter=0;" edge="1" parent="1" source="4BObnnodCT3G0U85T-69-23" target="4BObnnodCT3G0U85T-69-26">
          <mxGeometry width="50" height="50" relative="1" as="geometry">
            <mxPoint x="1920" y="720" as="sourcePoint" />
            <mxPoint x="1970" y="670" as="targetPoint" />
          </mxGeometry>
        </mxCell>
        <mxCell id="4BObnnodCT3G0U85T-69-40" value="" style="endArrow=classic;html=1;rounded=0;entryX=0;entryY=0.5;entryDx=0;entryDy=0;exitX=1;exitY=0.5;exitDx=0;exitDy=0;" edge="1" parent="1" source="4BObnnodCT3G0U85T-69-23" target="4BObnnodCT3G0U85T-69-25">
          <mxGeometry width="50" height="50" relative="1" as="geometry">
            <mxPoint x="1920" y="720" as="sourcePoint" />
            <mxPoint x="1970" y="670" as="targetPoint" />
          </mxGeometry>
        </mxCell>
        <mxCell id="4BObnnodCT3G0U85T-69-41" value="" style="endArrow=classic;html=1;rounded=0;entryX=0.733;entryY=0.05;entryDx=0;entryDy=0;entryPerimeter=0;" edge="1" parent="1" target="4BObnnodCT3G0U85T-69-28">
          <mxGeometry width="50" height="50" relative="1" as="geometry">
            <mxPoint x="1840" y="660" as="sourcePoint" />
            <mxPoint x="1970" y="670" as="targetPoint" />
          </mxGeometry>
        </mxCell>
        <mxCell id="4BObnnodCT3G0U85T-69-42" value="" style="endArrow=classic;html=1;rounded=0;exitX=0;exitY=0.5;exitDx=0;exitDy=0;entryX=1;entryY=0.5;entryDx=0;entryDy=0;" edge="1" parent="1" source="4BObnnodCT3G0U85T-69-23" target="4BObnnodCT3G0U85T-69-29">
          <mxGeometry width="50" height="50" relative="1" as="geometry">
            <mxPoint x="1754" y="655" as="sourcePoint" />
            <mxPoint x="1804" y="605" as="targetPoint" />
          </mxGeometry>
        </mxCell>
        <mxCell id="4BObnnodCT3G0U85T-69-43" value="MENGELOLA" style="rhombus;whiteSpace=wrap;html=1;" vertex="1" parent="1">
          <mxGeometry x="1460" y="500" width="80" height="80" as="geometry" />
        </mxCell>
        <mxCell id="4BObnnodCT3G0U85T-69-44" value="" style="endArrow=none;html=1;rounded=0;exitX=0;exitY=0.5;exitDx=0;exitDy=0;entryX=0.5;entryY=1;entryDx=0;entryDy=0;" edge="1" parent="1" source="4BObnnodCT3G0U85T-69-23" target="4BObnnodCT3G0U85T-69-43">
          <mxGeometry width="50" height="50" relative="1" as="geometry">
            <mxPoint x="1670" y="580" as="sourcePoint" />
            <mxPoint x="1720" y="530" as="targetPoint" />
          </mxGeometry>
        </mxCell>
        <mxCell id="4BObnnodCT3G0U85T-69-45" value="MENGELOLA" style="rhombus;whiteSpace=wrap;html=1;" vertex="1" parent="1">
          <mxGeometry x="1460" y="300" width="80" height="80" as="geometry" />
        </mxCell>
        <mxCell id="4BObnnodCT3G0U85T-69-46" value="" style="endArrow=none;html=1;rounded=0;entryX=0;entryY=0.5;entryDx=0;entryDy=0;exitX=1;exitY=0.5;exitDx=0;exitDy=0;" edge="1" parent="1" source="4BObnnodCT3G0U85T-69-45" target="4BObnnodCT3G0U85T-69-4">
          <mxGeometry width="50" height="50" relative="1" as="geometry">
            <mxPoint x="1590" y="450" as="sourcePoint" />
            <mxPoint x="1640" y="400" as="targetPoint" />
          </mxGeometry>
        </mxCell>
        <mxCell id="4BObnnodCT3G0U85T-69-47" value="TRANSAKSI" style="rounded=1;whiteSpace=wrap;html=1;" vertex="1" parent="1">
          <mxGeometry x="1070" y="310" width="120" height="60" as="geometry" />
        </mxCell>
        <mxCell id="4BObnnodCT3G0U85T-69-48" value="" style="endArrow=none;html=1;rounded=0;entryX=0;entryY=0.5;entryDx=0;entryDy=0;exitX=1;exitY=0.5;exitDx=0;exitDy=0;" edge="1" parent="1" source="4BObnnodCT3G0U85T-69-47" target="4BObnnodCT3G0U85T-69-45">
          <mxGeometry width="50" height="50" relative="1" as="geometry">
            <mxPoint x="1280" y="430" as="sourcePoint" />
            <mxPoint x="1330" y="380" as="targetPoint" />
          </mxGeometry>
        </mxCell>
        <mxCell id="4BObnnodCT3G0U85T-69-49" value="keterangan" style="ellipse;whiteSpace=wrap;html=1;" vertex="1" parent="1">
          <mxGeometry x="1330" y="210" width="120" height="80" as="geometry" />
        </mxCell>
        <mxCell id="4BObnnodCT3G0U85T-69-50" value="" style="endArrow=classic;html=1;rounded=0;entryX=0.076;entryY=0.808;entryDx=0;entryDy=0;entryPerimeter=0;exitX=1;exitY=0.25;exitDx=0;exitDy=0;" edge="1" parent="1" source="4BObnnodCT3G0U85T-69-47" target="4BObnnodCT3G0U85T-69-49">
          <mxGeometry width="50" height="50" relative="1" as="geometry">
            <mxPoint x="1300" y="320" as="sourcePoint" />
            <mxPoint x="1310" y="250" as="targetPoint" />
          </mxGeometry>
        </mxCell>
        <mxCell id="4BObnnodCT3G0U85T-69-51" value="total_bayar" style="ellipse;whiteSpace=wrap;html=1;" vertex="1" parent="1">
          <mxGeometry x="1330" y="120" width="120" height="80" as="geometry" />
        </mxCell>
        <mxCell id="4BObnnodCT3G0U85T-69-52" value="no_invoice" style="ellipse;whiteSpace=wrap;html=1;" vertex="1" parent="1">
          <mxGeometry x="1260" y="40" width="120" height="80" as="geometry" />
        </mxCell>
        <mxCell id="4BObnnodCT3G0U85T-69-53" value="id_status" style="ellipse;whiteSpace=wrap;html=1;" vertex="1" parent="1">
          <mxGeometry x="1130" y="30" width="120" height="80" as="geometry" />
        </mxCell>
        <mxCell id="4BObnnodCT3G0U85T-69-54" value="id_tipe_bayar" style="ellipse;whiteSpace=wrap;html=1;" vertex="1" parent="1">
          <mxGeometry x="1000" y="30" width="120" height="80" as="geometry" />
        </mxCell>
        <mxCell id="4BObnnodCT3G0U85T-69-55" value="id_paket" style="ellipse;whiteSpace=wrap;html=1;" vertex="1" parent="1">
          <mxGeometry x="870" y="40" width="120" height="80" as="geometry" />
        </mxCell>
        <mxCell id="4BObnnodCT3G0U85T-69-56" value="id_karyawan" style="ellipse;whiteSpace=wrap;html=1;" vertex="1" parent="1">
          <mxGeometry x="780" y="110" width="120" height="80" as="geometry" />
        </mxCell>
        <mxCell id="4BObnnodCT3G0U85T-69-57" value="id_konsumen" style="ellipse;whiteSpace=wrap;html=1;" vertex="1" parent="1">
          <mxGeometry x="730" y="190" width="120" height="80" as="geometry" />
        </mxCell>
        <mxCell id="4BObnnodCT3G0U85T-69-58" value="id" style="ellipse;whiteSpace=wrap;html=1;" vertex="1" parent="1">
          <mxGeometry x="790" y="270" width="120" height="80" as="geometry" />
        </mxCell>
        <mxCell id="4BObnnodCT3G0U85T-69-59" value="" style="endArrow=classic;html=1;rounded=0;exitX=0.839;exitY=-0.011;exitDx=0;exitDy=0;exitPerimeter=0;entryX=0.032;entryY=0.683;entryDx=0;entryDy=0;entryPerimeter=0;" edge="1" parent="1" source="4BObnnodCT3G0U85T-69-47" target="4BObnnodCT3G0U85T-69-51">
          <mxGeometry width="50" height="50" relative="1" as="geometry">
            <mxPoint x="1165" y="310" as="sourcePoint" />
            <mxPoint x="1215" y="260" as="targetPoint" />
          </mxGeometry>
        </mxCell>
        <mxCell id="4BObnnodCT3G0U85T-69-60" value="" style="endArrow=classic;html=1;rounded=0;exitX=0.75;exitY=0;exitDx=0;exitDy=0;entryX=0.23;entryY=0.946;entryDx=0;entryDy=0;entryPerimeter=0;" edge="1" parent="1" source="4BObnnodCT3G0U85T-69-47" target="4BObnnodCT3G0U85T-69-52">
          <mxGeometry width="50" height="50" relative="1" as="geometry">
            <mxPoint x="1150" y="300" as="sourcePoint" />
            <mxPoint x="1200" y="250" as="targetPoint" />
          </mxGeometry>
        </mxCell>
        <mxCell id="4BObnnodCT3G0U85T-69-61" value="" style="endArrow=classic;html=1;rounded=0;exitX=0.655;exitY=0.007;exitDx=0;exitDy=0;exitPerimeter=0;entryX=0.5;entryY=1;entryDx=0;entryDy=0;" edge="1" parent="1" source="4BObnnodCT3G0U85T-69-47" target="4BObnnodCT3G0U85T-69-53">
          <mxGeometry width="50" height="50" relative="1" as="geometry">
            <mxPoint x="990" y="280" as="sourcePoint" />
            <mxPoint x="1040" y="230" as="targetPoint" />
          </mxGeometry>
        </mxCell>
        <mxCell id="4BObnnodCT3G0U85T-69-62" value="" style="endArrow=classic;html=1;rounded=0;exitX=0.5;exitY=0;exitDx=0;exitDy=0;entryX=0.5;entryY=1;entryDx=0;entryDy=0;" edge="1" parent="1" source="4BObnnodCT3G0U85T-69-47" target="4BObnnodCT3G0U85T-69-54">
          <mxGeometry width="50" height="50" relative="1" as="geometry">
            <mxPoint x="990" y="280" as="sourcePoint" />
            <mxPoint x="1040" y="230" as="targetPoint" />
          </mxGeometry>
        </mxCell>
        <mxCell id="4BObnnodCT3G0U85T-69-63" value="" style="endArrow=classic;html=1;rounded=0;exitX=0.313;exitY=-0.028;exitDx=0;exitDy=0;exitPerimeter=0;entryX=0.708;entryY=0.986;entryDx=0;entryDy=0;entryPerimeter=0;" edge="1" parent="1" source="4BObnnodCT3G0U85T-69-47" target="4BObnnodCT3G0U85T-69-55">
          <mxGeometry width="50" height="50" relative="1" as="geometry">
            <mxPoint x="990" y="280" as="sourcePoint" />
            <mxPoint x="1040" y="230" as="targetPoint" />
          </mxGeometry>
        </mxCell>
        <mxCell id="4BObnnodCT3G0U85T-69-64" value="" style="endArrow=classic;html=1;rounded=0;entryX=1;entryY=1;entryDx=0;entryDy=0;exitX=0.25;exitY=0;exitDx=0;exitDy=0;" edge="1" parent="1" source="4BObnnodCT3G0U85T-69-47" target="4BObnnodCT3G0U85T-69-56">
          <mxGeometry width="50" height="50" relative="1" as="geometry">
            <mxPoint x="1070" y="310" as="sourcePoint" />
            <mxPoint x="980" y="200" as="targetPoint" />
          </mxGeometry>
        </mxCell>
        <mxCell id="4BObnnodCT3G0U85T-69-65" value="" style="endArrow=classic;html=1;rounded=0;entryX=1.032;entryY=0.611;entryDx=0;entryDy=0;entryPerimeter=0;exitX=0;exitY=0.25;exitDx=0;exitDy=0;" edge="1" parent="1" source="4BObnnodCT3G0U85T-69-47" target="4BObnnodCT3G0U85T-69-57">
          <mxGeometry width="50" height="50" relative="1" as="geometry">
            <mxPoint x="910" y="335" as="sourcePoint" />
            <mxPoint x="960" y="285" as="targetPoint" />
          </mxGeometry>
        </mxCell>
        <mxCell id="4BObnnodCT3G0U85T-69-66" value="" style="endArrow=classic;html=1;rounded=0;entryX=1;entryY=0.5;entryDx=0;entryDy=0;exitX=0;exitY=0.5;exitDx=0;exitDy=0;" edge="1" parent="1" source="4BObnnodCT3G0U85T-69-47" target="4BObnnodCT3G0U85T-69-58">
          <mxGeometry width="50" height="50" relative="1" as="geometry">
            <mxPoint x="1060" y="340" as="sourcePoint" />
            <mxPoint x="1080" y="210" as="targetPoint" />
          </mxGeometry>
        </mxCell>
        <mxCell id="4BObnnodCT3G0U85T-69-67" value="" style="endArrow=none;html=1;rounded=0;exitX=0.5;exitY=0;exitDx=0;exitDy=0;entryX=0.5;entryY=1;entryDx=0;entryDy=0;" edge="1" parent="1" source="4BObnnodCT3G0U85T-69-43" target="4BObnnodCT3G0U85T-69-47">
          <mxGeometry width="50" height="50" relative="1" as="geometry">
            <mxPoint x="1360" y="410" as="sourcePoint" />
            <mxPoint x="1410" y="360" as="targetPoint" />
          </mxGeometry>
        </mxCell>
        <mxCell id="4BObnnodCT3G0U85T-69-68" value="MEMILIKI" style="rhombus;whiteSpace=wrap;html=1;" vertex="1" parent="1">
          <mxGeometry x="860" y="490" width="80" height="80" as="geometry" />
        </mxCell>
        <mxCell id="4BObnnodCT3G0U85T-69-69" value="" style="endArrow=none;html=1;rounded=0;exitX=1;exitY=0.5;exitDx=0;exitDy=0;entryX=0.5;entryY=1;entryDx=0;entryDy=0;" edge="1" parent="1" source="4BObnnodCT3G0U85T-69-68" target="4BObnnodCT3G0U85T-69-47">
          <mxGeometry width="50" height="50" relative="1" as="geometry">
            <mxPoint x="1190" y="450" as="sourcePoint" />
            <mxPoint x="1240" y="400" as="targetPoint" />
          </mxGeometry>
        </mxCell>
        <mxCell id="4BObnnodCT3G0U85T-69-70" value="PAKET" style="rounded=1;whiteSpace=wrap;html=1;" vertex="1" parent="1">
          <mxGeometry x="840" y="685" width="120" height="60" as="geometry" />
        </mxCell>
        <mxCell id="4BObnnodCT3G0U85T-69-71" value="satuan" style="ellipse;whiteSpace=wrap;html=1;" vertex="1" parent="1">
          <mxGeometry x="1070" y="675" width="120" height="80" as="geometry" />
        </mxCell>
        <mxCell id="4BObnnodCT3G0U85T-69-72" value="harga" style="ellipse;whiteSpace=wrap;html=1;" vertex="1" parent="1">
          <mxGeometry x="1000" y="755" width="120" height="80" as="geometry" />
        </mxCell>
        <mxCell id="4BObnnodCT3G0U85T-69-73" value="jumlah_hari" style="ellipse;whiteSpace=wrap;html=1;" vertex="1" parent="1">
          <mxGeometry x="900" y="835" width="120" height="80" as="geometry" />
        </mxCell>
        <mxCell id="4BObnnodCT3G0U85T-69-74" value="jenis" style="ellipse;whiteSpace=wrap;html=1;" vertex="1" parent="1">
          <mxGeometry x="760" y="835" width="120" height="80" as="geometry" />
        </mxCell>
        <mxCell id="4BObnnodCT3G0U85T-69-75" value="nama" style="ellipse;whiteSpace=wrap;html=1;" vertex="1" parent="1">
          <mxGeometry x="670" y="755" width="120" height="80" as="geometry" />
        </mxCell>
        <mxCell id="4BObnnodCT3G0U85T-69-76" value="id" style="ellipse;whiteSpace=wrap;html=1;" vertex="1" parent="1">
          <mxGeometry x="600" y="675" width="120" height="80" as="geometry" />
        </mxCell>
        <mxCell id="4BObnnodCT3G0U85T-69-77" value="" style="endArrow=classic;html=1;rounded=0;exitX=1;exitY=0.5;exitDx=0;exitDy=0;entryX=0;entryY=0.5;entryDx=0;entryDy=0;" edge="1" parent="1" source="4BObnnodCT3G0U85T-69-70" target="4BObnnodCT3G0U85T-69-71">
          <mxGeometry width="50" height="50" relative="1" as="geometry">
            <mxPoint x="980" y="740" as="sourcePoint" />
            <mxPoint x="1030" y="690" as="targetPoint" />
          </mxGeometry>
        </mxCell>
        <mxCell id="4BObnnodCT3G0U85T-69-78" value="" style="endArrow=classic;html=1;rounded=0;entryX=0;entryY=0;entryDx=0;entryDy=0;" edge="1" parent="1" target="4BObnnodCT3G0U85T-69-72">
          <mxGeometry width="50" height="50" relative="1" as="geometry">
            <mxPoint x="960" y="740" as="sourcePoint" />
            <mxPoint x="1030" y="690" as="targetPoint" />
          </mxGeometry>
        </mxCell>
        <mxCell id="4BObnnodCT3G0U85T-69-79" value="" style="endArrow=classic;html=1;rounded=0;exitX=0.75;exitY=1;exitDx=0;exitDy=0;entryX=0.44;entryY=0.015;entryDx=0;entryDy=0;entryPerimeter=0;" edge="1" parent="1" source="4BObnnodCT3G0U85T-69-70" target="4BObnnodCT3G0U85T-69-73">
          <mxGeometry width="50" height="50" relative="1" as="geometry">
            <mxPoint x="935" y="790" as="sourcePoint" />
            <mxPoint x="985" y="740" as="targetPoint" />
          </mxGeometry>
        </mxCell>
        <mxCell id="4BObnnodCT3G0U85T-69-80" value="" style="endArrow=classic;html=1;rounded=0;exitX=0.25;exitY=1;exitDx=0;exitDy=0;entryX=0.581;entryY=0.015;entryDx=0;entryDy=0;entryPerimeter=0;" edge="1" parent="1" source="4BObnnodCT3G0U85T-69-70" target="4BObnnodCT3G0U85T-69-74">
          <mxGeometry width="50" height="50" relative="1" as="geometry">
            <mxPoint x="980" y="740" as="sourcePoint" />
            <mxPoint x="1030" y="690" as="targetPoint" />
          </mxGeometry>
        </mxCell>
        <mxCell id="4BObnnodCT3G0U85T-69-81" value="" style="endArrow=classic;html=1;rounded=0;exitX=0;exitY=0.75;exitDx=0;exitDy=0;entryX=1;entryY=0;entryDx=0;entryDy=0;" edge="1" parent="1" source="4BObnnodCT3G0U85T-69-70" target="4BObnnodCT3G0U85T-69-75">
          <mxGeometry width="50" height="50" relative="1" as="geometry">
            <mxPoint x="980" y="740" as="sourcePoint" />
            <mxPoint x="1030" y="690" as="targetPoint" />
          </mxGeometry>
        </mxCell>
        <mxCell id="4BObnnodCT3G0U85T-69-82" value="" style="endArrow=classic;html=1;rounded=0;exitX=0;exitY=0.5;exitDx=0;exitDy=0;entryX=1;entryY=0.5;entryDx=0;entryDy=0;" edge="1" parent="1" source="4BObnnodCT3G0U85T-69-70" target="4BObnnodCT3G0U85T-69-76">
          <mxGeometry width="50" height="50" relative="1" as="geometry">
            <mxPoint x="980" y="740" as="sourcePoint" />
            <mxPoint x="1030" y="690" as="targetPoint" />
          </mxGeometry>
        </mxCell>
        <mxCell id="4BObnnodCT3G0U85T-69-83" value="" style="endArrow=none;html=1;rounded=0;entryX=0.5;entryY=1;entryDx=0;entryDy=0;exitX=0.5;exitY=0;exitDx=0;exitDy=0;" edge="1" parent="1" source="4BObnnodCT3G0U85T-69-70" target="4BObnnodCT3G0U85T-69-68">
          <mxGeometry width="50" height="50" relative="1" as="geometry">
            <mxPoint x="850" y="625" as="sourcePoint" />
            <mxPoint x="900" y="575" as="targetPoint" />
          </mxGeometry>
        </mxCell>
        <mxCell id="4BObnnodCT3G0U85T-69-84" value="STATUS" style="rounded=1;whiteSpace=wrap;html=1;" vertex="1" parent="1">
          <mxGeometry x="590" y="310" width="120" height="60" as="geometry" />
        </mxCell>
        <mxCell id="4BObnnodCT3G0U85T-69-85" value="" style="endArrow=none;html=1;rounded=0;exitX=0.5;exitY=0;exitDx=0;exitDy=0;entryX=1;entryY=0.5;entryDx=0;entryDy=0;" edge="1" parent="1" source="4BObnnodCT3G0U85T-69-68" target="4BObnnodCT3G0U85T-69-84">
          <mxGeometry width="50" height="50" relative="1" as="geometry">
            <mxPoint x="740" y="380" as="sourcePoint" />
            <mxPoint x="790" y="330" as="targetPoint" />
          </mxGeometry>
        </mxCell>
        <mxCell id="4BObnnodCT3G0U85T-69-86" value="nama" style="ellipse;whiteSpace=wrap;html=1;" vertex="1" parent="1">
          <mxGeometry x="570" y="150" width="120" height="80" as="geometry" />
        </mxCell>
        <mxCell id="4BObnnodCT3G0U85T-69-88" value="id" style="ellipse;whiteSpace=wrap;html=1;" vertex="1" parent="1">
          <mxGeometry x="420" y="170" width="120" height="80" as="geometry" />
        </mxCell>
        <mxCell id="4BObnnodCT3G0U85T-69-89" value="" style="endArrow=none;html=1;rounded=0;exitX=0.5;exitY=0;exitDx=0;exitDy=0;entryX=0.5;entryY=1;entryDx=0;entryDy=0;" edge="1" parent="1" source="4BObnnodCT3G0U85T-69-84" target="4BObnnodCT3G0U85T-69-86">
          <mxGeometry width="50" height="50" relative="1" as="geometry">
            <mxPoint x="740" y="380" as="sourcePoint" />
            <mxPoint x="790" y="330" as="targetPoint" />
          </mxGeometry>
        </mxCell>
        <mxCell id="4BObnnodCT3G0U85T-69-90" value="" style="endArrow=none;html=1;rounded=0;exitX=0;exitY=0.5;exitDx=0;exitDy=0;entryX=0.5;entryY=1;entryDx=0;entryDy=0;" edge="1" parent="1" source="4BObnnodCT3G0U85T-69-84" target="4BObnnodCT3G0U85T-69-88">
          <mxGeometry width="50" height="50" relative="1" as="geometry">
            <mxPoint x="740" y="380" as="sourcePoint" />
            <mxPoint x="790" y="330" as="targetPoint" />
          </mxGeometry>
        </mxCell>
        <mxCell id="4BObnnodCT3G0U85T-69-91" value="TIPE BAYAR" style="rounded=1;whiteSpace=wrap;html=1;" vertex="1" parent="1">
          <mxGeometry x="300" y="500" width="120" height="60" as="geometry" />
        </mxCell>
        <mxCell id="4BObnnodCT3G0U85T-69-92" value="atas_nama" style="ellipse;whiteSpace=wrap;html=1;" vertex="1" parent="1">
          <mxGeometry x="290" y="370" width="120" height="80" as="geometry" />
        </mxCell>
        <mxCell id="4BObnnodCT3G0U85T-69-93" value="no_rek" style="ellipse;whiteSpace=wrap;html=1;" vertex="1" parent="1">
          <mxGeometry x="130" y="380" width="120" height="80" as="geometry" />
        </mxCell>
        <mxCell id="4BObnnodCT3G0U85T-69-94" value="nama" style="ellipse;whiteSpace=wrap;html=1;" vertex="1" parent="1">
          <mxGeometry x="130" y="520" width="120" height="80" as="geometry" />
        </mxCell>
        <mxCell id="4BObnnodCT3G0U85T-69-95" value="id" style="ellipse;whiteSpace=wrap;html=1;" vertex="1" parent="1">
          <mxGeometry x="250" y="600" width="120" height="80" as="geometry" />
        </mxCell>
        <mxCell id="4BObnnodCT3G0U85T-69-96" value="" style="endArrow=none;html=1;rounded=0;entryX=0;entryY=0.5;entryDx=0;entryDy=0;exitX=1;exitY=0.5;exitDx=0;exitDy=0;" edge="1" parent="1" source="4BObnnodCT3G0U85T-69-91" target="4BObnnodCT3G0U85T-69-68">
          <mxGeometry width="50" height="50" relative="1" as="geometry">
            <mxPoint x="420" y="590" as="sourcePoint" />
            <mxPoint x="470" y="540" as="targetPoint" />
          </mxGeometry>
        </mxCell>
        <mxCell id="4BObnnodCT3G0U85T-69-97" value="" style="endArrow=none;html=1;rounded=0;exitX=0.66;exitY=0.045;exitDx=0;exitDy=0;exitPerimeter=0;entryX=0.5;entryY=1;entryDx=0;entryDy=0;" edge="1" parent="1" source="4BObnnodCT3G0U85T-69-95" target="4BObnnodCT3G0U85T-69-91">
          <mxGeometry width="50" height="50" relative="1" as="geometry">
            <mxPoint x="420" y="590" as="sourcePoint" />
            <mxPoint x="470" y="540" as="targetPoint" />
          </mxGeometry>
        </mxCell>
        <mxCell id="4BObnnodCT3G0U85T-69-98" value="" style="endArrow=none;html=1;rounded=0;exitX=1;exitY=0.5;exitDx=0;exitDy=0;entryX=0;entryY=0.5;entryDx=0;entryDy=0;" edge="1" parent="1" source="4BObnnodCT3G0U85T-69-94" target="4BObnnodCT3G0U85T-69-91">
          <mxGeometry width="50" height="50" relative="1" as="geometry">
            <mxPoint x="420" y="590" as="sourcePoint" />
            <mxPoint x="470" y="540" as="targetPoint" />
          </mxGeometry>
        </mxCell>
        <mxCell id="4BObnnodCT3G0U85T-69-99" value="" style="endArrow=none;html=1;rounded=0;exitX=1;exitY=1;exitDx=0;exitDy=0;entryX=0;entryY=0.25;entryDx=0;entryDy=0;" edge="1" parent="1" source="4BObnnodCT3G0U85T-69-93" target="4BObnnodCT3G0U85T-69-91">
          <mxGeometry width="50" height="50" relative="1" as="geometry">
            <mxPoint x="340" y="540" as="sourcePoint" />
            <mxPoint x="390" y="490" as="targetPoint" />
          </mxGeometry>
        </mxCell>
        <mxCell id="4BObnnodCT3G0U85T-69-100" value="" style="endArrow=none;html=1;rounded=0;exitX=0.5;exitY=1;exitDx=0;exitDy=0;entryX=0.5;entryY=0;entryDx=0;entryDy=0;" edge="1" parent="1" source="4BObnnodCT3G0U85T-69-92" target="4BObnnodCT3G0U85T-69-91">
          <mxGeometry width="50" height="50" relative="1" as="geometry">
            <mxPoint x="340" y="540" as="sourcePoint" />
            <mxPoint x="390" y="490" as="targetPoint" />
          </mxGeometry>
        </mxCell>
      </root>
    </mxGraphModel>
  </diagram>
</mxfile>
